<?xml version="1.0" encoding="UTF-8"?>
<svg xmlns="http://www.w3.org/2000/svg" xmlns:xlink="http://www.w3.org/1999/xlink" viewBox="0 0 48 48" width="48px" height="48px">
<g id="surface23217528">
<path style=" stroke:none;fill-rule:nonzero;fill:rgb(40.000001%,40.000001%,40.000001%);fill-opacity:1;" d="M 22.902344 3.285156 C 23.582031 2.90625 24.417969 2.90625 25.097656 3.285156 C 28.449219 5.167969 38.546875 10.835938 41.902344 12.71875 C 42.582031 13.101562 43 13.804688 43 14.566406 C 43 18.332031 43 29.667969 43 33.433594 C 43 34.195312 42.582031 34.898438 41.902344 35.28125 C 38.546875 37.164062 28.453125 42.832031 25.097656 44.714844 C 24.417969 45.09375 23.582031 45.09375 22.902344 44.714844 C 19.546875 42.832031 9.453125 37.164062 6.097656 35.28125 C 5.417969 34.898438 5 34.195312 5 33.433594 C 5 29.667969 5 18.332031 5 14.566406 C 5 13.804688 5.417969 13.101562 6.097656 12.71875 C 9.449219 10.835938 19.550781 5.167969 22.902344 3.285156 Z M 22.902344 3.285156 "/>
<path style=" stroke:none;fill-rule:nonzero;fill:rgb(80.000001%,80.000001%,80.000001%);fill-opacity:1;" d="M 5.304688 34.402344 C 5.039062 34.046875 5 33.710938 5 33.253906 C 5 29.511719 5 18.242188 5 14.496094 C 5 13.738281 5.417969 13.039062 6.09375 12.660156 C 9.4375 10.789062 19.5 5.152344 22.84375 3.28125 C 23.519531 2.902344 24.4375 2.910156 25.113281 3.289062 C 28.457031 5.160156 38.484375 10.746094 41.828125 12.617188 C 42.097656 12.769531 42.304688 12.953125 42.488281 13.195312 Z M 5.304688 34.402344 "/>
<path style=" stroke:none;fill-rule:nonzero;fill:rgb(100%,100%,100%);fill-opacity:1;" d="M 24 10 C 16.269531 10 10 16.269531 10 24 C 10 31.730469 16.269531 38 24 38 C 31.730469 38 38 31.730469 38 24 C 38 16.269531 31.730469 10 24 10 Z M 24 31 C 20.140625 31 17 27.859375 17 24 C 17 20.140625 20.140625 17 24 17 C 27.859375 17 31 20.140625 31 24 C 31 27.859375 27.859375 31 24 31 Z M 24 31 "/>
<path style=" stroke:none;fill-rule:nonzero;fill:rgb(20%,20%,20%);fill-opacity:1;" d="M 42.484375 13.203125 C 43 13.6875 42.992188 14.414062 42.992188 14.988281 C 42.992188 18.785156 42.960938 29.578125 43 33.371094 C 43.003906 33.769531 42.871094 34.1875 42.675781 34.5 L 23.59375 24 Z M 42.484375 13.203125 "/>
<path style=" stroke:none;fill-rule:nonzero;fill:rgb(100%,100%,100%);fill-opacity:1;" d="M 34 20 L 35 20 L 35 28 L 34 28 Z M 37 20 L 38 20 L 38 28 L 37 28 Z M 37 20 "/>
<path style=" stroke:none;fill-rule:nonzero;fill:rgb(100%,100%,100%);fill-opacity:1;" d="M 32 25 L 40 25 L 40 26 L 32 26 Z M 32 22 L 40 22 L 40 23 L 32 23 Z M 32 22 "/>
</g>
</svg>
